<?xml version="1.0" encoding="utf-8"?>
<!-- Generator: Adobe Illustrator 15.0.0, SVG Export Plug-In . SVG Version: 6.00 Build 0)  -->
<!DOCTYPE svg PUBLIC "-//W3C//DTD SVG 1.1//EN" "http://www.w3.org/Graphics/SVG/1.1/DTD/svg11.dtd">
<svg version="1.1" id="Layer_1" xmlns="http://www.w3.org/2000/svg" xmlns:xlink="http://www.w3.org/1999/xlink" x="0px" y="0px"
	 width="250px" height="70px" viewBox="0 0 250 70" enable-background="new 0 0 250 70" xml:space="preserve">
<rect x="23.63" y="24.955" fill-rule="evenodd" clip-rule="evenodd" fill="#EB6841" width="6" height="22"/>
<rect x="32.63" y="31.955" fill-rule="evenodd" clip-rule="evenodd" fill="#CC333F" width="6" height="15"/>
<rect x="41.63" y="27.955" fill-rule="evenodd" clip-rule="evenodd" fill="#8A9B0F" width="6" height="19"/>
<g opacity="0.6">
	<path fill-rule="evenodd" clip-rule="evenodd" fill="#FFFFFF" d="M158.46,47.016c0.72-0.24,1.359-0.58,1.92-1.031
		c0.55-0.459,1-1.01,1.33-1.649c0.33-0.649,0.51-1.39,0.51-2.229v-0.061c0-0.79-0.16-1.46-0.47-2.01
		c-0.31-0.53-0.72-0.99-1.229-1.38c-0.511-0.39-1.08-0.7-1.711-0.95c-0.63-0.25-1.27-0.471-1.9-0.68
		c-0.56-0.18-1.1-0.36-1.609-0.541c-0.51-0.18-0.96-0.389-1.359-0.609c-0.391-0.23-0.701-0.5-0.94-0.8
		c-0.24-0.31-0.351-0.66-0.351-1.07v-0.069c0-0.721,0.291-1.32,0.871-1.811c0.579-0.48,1.359-0.73,2.35-0.73
		c0.82,0,1.64,0.15,2.49,0.44c0.85,0.3,1.66,0.7,2.439,1.21l1.12-1.91c-0.86-0.539-1.81-0.979-2.87-1.31
		c-1.05-0.32-2.09-0.49-3.12-0.49c-0.819,0-1.569,0.12-2.26,0.351c-0.7,0.25-1.32,0.58-1.851,1.029
		c-0.529,0.44-0.949,0.971-1.239,1.59c-0.3,0.621-0.44,1.301-0.44,2.041v0.08c0,0.809,0.16,1.489,0.49,2.029
		c0.33,0.55,0.76,1,1.279,1.359c0.521,0.361,1.101,0.66,1.75,0.9c0.641,0.24,1.291,0.461,1.931,0.66c0.521,0.16,1.03,0.33,1.54,0.5
		c0.5,0.189,0.939,0.4,1.33,0.63c0.37,0.24,0.68,0.521,0.9,0.83c0.22,0.32,0.34,0.69,0.34,1.12v0.07c0,0.859-0.32,1.539-0.971,2.039
		c-0.64,0.5-1.47,0.74-2.47,0.74s-1.979-0.189-2.95-0.56c-0.979-0.37-1.92-0.91-2.82-1.62l-1.26,1.82
		c0.95,0.75,2.021,1.34,3.25,1.779c1.23,0.42,2.44,0.641,3.65,0.641C156.96,47.365,157.729,47.245,158.46,47.016z"/>
	<path fill-rule="evenodd" clip-rule="evenodd" fill="#FFFFFF" d="M173.96,47.186c0.47-0.131,0.92-0.311,1.34-0.551v-2.189
		c-0.42,0.32-0.8,0.539-1.16,0.67c-0.359,0.119-0.76,0.189-1.17,0.189c-0.811,0-1.46-0.22-1.96-0.649
		c-0.5-0.44-0.739-1.21-0.739-2.32v-10.42h5.029v-2.069h-5.029v-5.15h-2.4l-0.12,5.15h-2.32v2.069h2.32v10.521
		c0,0.879,0.11,1.64,0.35,2.27c0.23,0.62,0.55,1.141,0.96,1.529c0.41,0.4,0.9,0.681,1.471,0.861c0.56,0.17,1.18,0.27,1.83,0.27
		C172.95,47.365,173.479,47.305,173.96,47.186z"/>
	<path fill-rule="evenodd" clip-rule="evenodd" fill="#FFFFFF" d="M188.649,46.475c0.98-0.6,1.75-1.279,2.33-2.069l-0.08,2.44h2.521
		V36.305c0-2.17-0.601-3.859-1.79-5.07c-1.24-1.26-3.04-1.899-5.4-1.899c-1.229,0-2.31,0.12-3.25,0.351
		c-0.949,0.25-1.88,0.56-2.8,0.949l0.74,1.98c0.771-0.37,1.56-0.66,2.36-0.891c0.8-0.22,1.699-0.33,2.689-0.33
		c1.57,0,2.78,0.41,3.641,1.221c0.859,0.82,1.289,2.02,1.289,3.6v0.561c-0.75-0.23-1.51-0.41-2.279-0.541
		c-0.78-0.129-1.7-0.199-2.75-0.199c-1.051,0-2,0.13-2.86,0.37c-0.86,0.25-1.601,0.62-2.229,1.09c-0.631,0.479-1.11,1.08-1.45,1.8
		c-0.341,0.721-0.511,1.561-0.511,2.51v0.061c0,0.92,0.181,1.72,0.53,2.39c0.351,0.69,0.82,1.261,1.4,1.729
		c0.569,0.461,1.229,0.82,1.979,1.041c0.75,0.22,1.51,0.34,2.28,0.34C186.47,47.365,187.68,47.064,188.649,46.475z M183.89,45.064
		c-0.5-0.159-0.939-0.389-1.32-0.689c-0.369-0.29-0.68-0.67-0.899-1.12s-0.33-0.95-0.33-1.51v-0.06c0-1.08,0.42-1.951,1.25-2.61
		c0.83-0.649,2.01-0.979,3.53-0.979c1.01,0,1.9,0.08,2.689,0.239c0.78,0.16,1.48,0.341,2.09,0.511v1.659
		c0,0.72-0.149,1.37-0.43,1.96c-0.279,0.59-0.68,1.09-1.17,1.51c-0.5,0.431-1.07,0.76-1.72,0.98c-0.66,0.24-1.37,0.35-2.13,0.35
		C184.899,45.305,184.38,45.225,183.89,45.064z"/>
	<path fill-rule="evenodd" clip-rule="evenodd" fill="#FFFFFF" d="M205.659,47.186c0.471-0.131,0.921-0.311,1.351-0.551v-2.189
		c-0.42,0.32-0.81,0.539-1.17,0.67c-0.36,0.119-0.75,0.189-1.16,0.189c-0.81,0-1.46-0.22-1.96-0.649c-0.5-0.44-0.75-1.21-0.75-2.32
		v-10.42h5.04v-2.069h-5.04v-5.15h-2.39l-0.12,5.15h-2.32v2.069h2.32v10.521c0,0.879,0.109,1.64,0.34,2.27
		c0.23,0.62,0.55,1.141,0.96,1.529c0.41,0.4,0.91,0.681,1.47,0.861c0.57,0.17,1.18,0.27,1.84,0.27
		C204.659,47.365,205.19,47.305,205.659,47.186z"/>
	<path fill-rule="evenodd" clip-rule="evenodd" fill="#FFFFFF" d="M219.35,47.016c0.73-0.24,1.36-0.58,1.921-1.031
		c0.56-0.459,1.01-1.01,1.34-1.649c0.33-0.649,0.5-1.39,0.5-2.229v-0.061c0-0.79-0.16-1.46-0.461-2.01
		c-0.319-0.53-0.729-0.99-1.24-1.38c-0.51-0.39-1.069-0.7-1.699-0.95s-1.27-0.471-1.91-0.68c-0.561-0.18-1.09-0.36-1.6-0.541
		c-0.51-0.18-0.971-0.389-1.36-0.609c-0.39-0.23-0.71-0.5-0.95-0.8c-0.23-0.31-0.34-0.66-0.34-1.07v-0.069
		c0-0.721,0.28-1.32,0.859-1.811c0.591-0.48,1.361-0.73,2.361-0.73c0.81,0,1.639,0.15,2.489,0.44c0.851,0.3,1.66,0.7,2.44,1.21
		l1.119-1.91c-0.859-0.539-1.819-0.979-2.869-1.31c-1.051-0.32-2.09-0.49-3.12-0.49c-0.82,0-1.57,0.12-2.271,0.351
		c-0.699,0.25-1.31,0.58-1.84,1.029c-0.54,0.44-0.96,0.971-1.25,1.59c-0.3,0.621-0.439,1.301-0.439,2.041v0.08
		c0,0.809,0.17,1.489,0.5,2.029c0.33,0.55,0.75,1,1.27,1.359c0.52,0.361,1.1,0.66,1.76,0.9c0.641,0.24,1.29,0.461,1.92,0.66
		c0.53,0.16,1.041,0.33,1.541,0.5c0.51,0.189,0.949,0.4,1.329,0.63c0.38,0.24,0.69,0.521,0.91,0.83c0.22,0.32,0.33,0.69,0.33,1.12
		v0.07c0,0.859-0.319,1.539-0.96,2.039c-0.65,0.5-1.471,0.74-2.48,0.74c-0.99,0-1.97-0.189-2.949-0.56
		c-0.971-0.37-1.92-0.91-2.811-1.62l-1.26,1.82c0.939,0.75,2.02,1.34,3.25,1.779c1.22,0.42,2.43,0.641,3.641,0.641
		C217.86,47.365,218.63,47.245,219.35,47.016z"/>
</g>
<g>
	<polygon fill-rule="evenodd" clip-rule="evenodd" fill="#FFFFFF" points="60.3,46.846 62.49,46.846 66.99,33.585 71.47,46.846 
		73.62,46.846 79.48,29.915 76.9,29.846 72.53,43.405 68.02,29.846 65.96,29.846 61.49,43.405 57.11,29.846 54.47,29.846 	"/>
	<path fill-rule="evenodd" clip-rule="evenodd" fill="#FFFFFF" d="M94.55,46.645c1.09-0.469,2.03-1.119,2.82-1.939
		c0.78-0.83,1.4-1.779,1.84-2.88c0.44-1.091,0.67-2.25,0.67-3.479v-0.061c0-1.221-0.22-2.37-0.65-3.45
		c-0.44-1.08-1.05-2.03-1.83-2.84c-0.79-0.819-1.71-1.46-2.79-1.94c-1.08-0.479-2.25-0.72-3.51-0.72c-1.29,0-2.47,0.24-3.54,0.72
		c-1.09,0.48-2.02,1.131-2.8,1.95c-0.79,0.82-1.39,1.78-1.82,2.88c-0.44,1.09-0.66,2.24-0.66,3.461v0.069
		c0,1.22,0.22,2.38,0.66,3.46c0.43,1.08,1.03,2.03,1.82,2.84c0.78,0.811,1.71,1.461,2.78,1.93c1.07,0.48,2.23,0.721,3.5,0.721
		C92.29,47.365,93.47,47.125,94.55,46.645z M88.59,44.755c-0.77-0.37-1.44-0.86-1.99-1.489c-0.57-0.621-1.01-1.351-1.32-2.19
		c-0.33-0.83-0.48-1.74-0.48-2.71v-0.061c0-0.949,0.15-1.84,0.46-2.68c0.31-0.83,0.73-1.57,1.27-2.189
		c0.53-0.621,1.19-1.11,1.96-1.48c0.77-0.38,1.62-0.561,2.55-0.561c0.89,0,1.73,0.181,2.5,0.561c0.77,0.37,1.44,0.859,2.01,1.49
		c0.57,0.64,1.02,1.38,1.34,2.22c0.31,0.83,0.48,1.729,0.48,2.7v0.07c0,0.949-0.16,1.84-0.47,2.66c-0.31,0.83-0.73,1.549-1.28,2.17
		c-0.55,0.629-1.21,1.119-1.98,1.489c-0.77,0.37-1.62,0.55-2.54,0.55C90.19,45.305,89.36,45.125,88.59,44.755z"/>
	<path fill-rule="evenodd" clip-rule="evenodd" fill="#FFFFFF" d="M103.9,46.846h2.52v-6.94c0-1.31,0.16-2.46,0.51-3.45
		c0.34-1,0.81-1.84,1.41-2.52c0.6-0.67,1.31-1.181,2.11-1.521c0.8-0.34,1.65-0.5,2.56-0.5h0.19v-2.58c-0.8-0.021-1.54,0.07-2.22,0.3
		c-0.69,0.221-1.32,0.551-1.9,0.99c-0.58,0.43-1.09,0.95-1.54,1.54c-0.46,0.61-0.82,1.261-1.12,1.97v-4.289h-2.52V46.846z"/>
	<rect x="117.48" y="22.635" fill-rule="evenodd" clip-rule="evenodd" fill="#FFFFFF" width="2.51" height="24.211"/>
	<path fill-rule="evenodd" clip-rule="evenodd" fill="#FFFFFF" d="M134.95,47.064c0.619-0.209,1.18-0.479,1.699-0.84
		c0.51-0.35,0.971-0.76,1.381-1.229c0.41-0.46,0.779-0.95,1.129-1.47l-0.059,3.32h2.51V22.635h-2.51v10.41
		c-0.32-0.49-0.691-0.97-1.101-1.42c-0.399-0.449-0.87-0.84-1.37-1.18c-0.51-0.34-1.08-0.6-1.71-0.801
		c-0.63-0.209-1.33-0.31-2.08-0.31c-1,0-1.96,0.21-2.89,0.62c-0.92,0.42-1.76,1.01-2.501,1.779c-0.729,0.771-1.329,1.711-1.77,2.82
		c-0.44,1.11-0.66,2.381-0.66,3.78v0.06c0,1.44,0.22,2.701,0.67,3.801c0.44,1.109,1.03,2.05,1.77,2.81
		c0.74,0.771,1.58,1.351,2.52,1.761c0.92,0.399,1.891,0.6,2.891,0.6C133.63,47.365,134.319,47.266,134.95,47.064z M131.04,44.825
		c-0.689-0.33-1.301-0.79-1.82-1.399c-0.52-0.591-0.93-1.32-1.23-2.181c-0.31-0.851-0.46-1.819-0.46-2.88v-0.061
		c0-1.09,0.15-2.06,0.46-2.92c0.301-0.85,0.711-1.58,1.221-2.17s1.1-1.039,1.8-1.35c0.69-0.311,1.42-0.471,2.229-0.471
		c0.75,0,1.471,0.17,2.17,0.511c0.701,0.34,1.33,0.8,1.881,1.399c0.55,0.601,0.99,1.33,1.32,2.17c0.319,0.851,0.49,1.791,0.49,2.83
		v0.061c0,1.05-0.171,1.99-0.49,2.83c-0.33,0.85-0.771,1.57-1.32,2.189c-0.551,0.61-1.18,1.08-1.881,1.42
		c-0.699,0.34-1.42,0.5-2.17,0.5C132.46,45.305,131.729,45.145,131.04,44.825z"/>
</g>
</svg>
